<?xml version="1.0" standalone="no"?>
<!DOCTYPE svg PUBLIC "-//W3C//DTD SVG 20010904//EN"
 "http://www.w3.org/TR/2001/REC-SVG-20010904/DTD/svg10.dtd">
<svg version="1.0" xmlns="http://www.w3.org/2000/svg"
 width="512.000000pt" height="512.000000pt" viewBox="0 0 512.000000 512.000000"
 preserveAspectRatio="xMidYMid meet">
<metadata>
Created by potrace 1.14, written by Peter Selinger 2001-2017
</metadata>
<g transform="translate(0.000000,512.000000) scale(0.100000,-0.100000)"
fill="#000000" stroke="none">
<path d="M2455 5071 c-76 -46 -334 -198 -402 -237 -33 -19 -341 -201 -1053
-619 -223 -131 -463 -273 -535 -314 l-130 -77 1 -339 c6 -1323 17 -2221 27
-2227 17 -10 763 -434 779 -442 7 -4 22 -12 33 -19 44 -26 183 -106 240 -137
33 -18 138 -78 233 -132 95 -55 194 -111 220 -125 26 -14 197 -111 380 -215
l332 -189 378 222 c207 122 465 274 572 338 107 64 204 121 215 127 32 17 976
572 1022 600 l21 13 -4 513 c-3 282 -6 698 -9 923 -2 226 -4 570 -4 765 l-1
356 -112 64 c-62 36 -129 73 -148 83 -19 11 -48 27 -65 37 -16 10 -50 29 -75
42 -209 116 -389 224 -428 256 -45 38 -110 72 -138 72 -7 0 -109 55 -226 121
-117 67 -233 133 -258 147 -25 14 -173 98 -330 187 -422 240 -449 255 -452
255 -2 0 -39 -22 -83 -49z m115 -164 c14 -7 48 -26 75 -42 56 -32 155 -88 230
-130 28 -15 80 -45 117 -67 37 -21 94 -53 126 -71 32 -18 149 -84 260 -146
l202 -115 -27 -28 -27 -28 -75 42 c-42 23 -89 49 -106 59 -16 10 -46 26 -65
37 -19 11 -51 28 -70 39 -363 207 -662 373 -669 373 -8 0 -75 -39 -467 -271
l-131 -77 -88 -6 -88 -5 119 69 c65 38 236 139 379 224 143 85 265 155 270
155 6 0 21 -5 35 -12z m144 -234 c83 -47 176 -100 206 -116 30 -17 67 -38 82
-49 14 -10 28 -18 31 -18 5 0 397 -222 435 -246 l22 -15 -25 -37 c-14 -20 -25
-40 -25 -44 0 -3 24 -17 53 -31 65 -30 137 -94 171 -151 29 -49 63 -136 70
-181 3 -16 9 -50 14 -75 9 -48 8 -242 -1 -306 -3 -21 -11 -73 -17 -114 -6 -41
-12 -82 -15 -90 -4 -14 -7 -27 -20 -97 -16 -79 -113 -379 -150 -458 -7 -16
-30 -70 -50 -119 -34 -83 -133 -282 -237 -476 -125 -234 -386 -607 -553 -789
-273 -298 -452 -411 -641 -402 -57 3 -83 66 -79 198 4 127 12 174 61 363 19
74 37 145 40 158 2 13 11 42 18 65 12 36 47 152 51 167 2 10 76 245 85 270 5
14 16 52 25 85 10 33 23 78 31 100 12 37 54 177 59 200 1 6 5 17 8 25 14 40
131 480 142 539 5 27 34 204 39 243 28 193 26 481 -5 628 -20 97 -61 216 -89
260 -9 14 -19 32 -22 40 -4 8 -32 46 -63 83 -64 78 -138 129 -228 159 -34 11
-70 23 -80 27 -12 4 54 48 230 152 137 81 254 145 262 143 7 -2 81 -43 165
-91z m-793 -411 c36 -14 94 -70 113 -109 43 -87 72 -268 70 -448 -1 -171 -14
-389 -28 -470 -4 -22 -8 -53 -11 -70 -4 -29 -13 -90 -20 -130 -2 -11 -6 -31
-9 -45 -3 -14 -8 -36 -10 -50 -18 -112 -115 -486 -181 -700 -15 -47 -28 -92
-30 -100 -6 -26 -123 -394 -135 -425 -6 -16 -11 -32 -11 -35 0 -5 -27 -102
-37 -130 -6 -18 -2 -5 -42 -155 -37 -138 -36 -132 -45 -210 -11 -95 -12 -144
-5 -192 4 -24 4 -45 1 -48 -4 -2 -36 13 -71 34 -36 20 -92 52 -125 70 -33 18
-89 50 -125 71 -36 21 -81 46 -100 56 -19 11 -132 74 -251 142 l-215 122 -3
478 c-2 262 -5 641 -6 842 -2 201 -4 480 -5 621 -2 141 0 261 4 267 6 10 380
232 392 232 3 0 3 -8 -1 -17 -23 -57 -45 -168 -45 -233 0 -131 46 -235 134
-299 70 -52 131 -73 249 -86 l57 -6 -21 53 c-55 140 -63 345 -19 513 6 22 12
49 14 60 2 11 14 45 26 75 73 186 180 300 307 329 48 11 150 7 184 -7z m-759
-174 c-20 -29 -45 -65 -54 -79 -10 -16 -104 -77 -245 -159 -125 -74 -240 -142
-255 -152 l-28 -19 6 -797 c3 -438 7 -951 8 -1139 0 -189 4 -343 7 -343 3 0
114 -61 245 -136 131 -75 259 -147 284 -160 25 -14 61 -34 80 -45 19 -12 110
-63 201 -115 111 -62 173 -104 185 -123 47 -73 158 -138 293 -170 59 -15 117
-42 256 -121 99 -57 200 -114 225 -128 25 -14 81 -45 124 -70 l79 -46 61 34
c34 18 171 98 306 178 135 79 265 156 290 170 25 13 131 75 235 137 105 62
206 122 225 133 19 11 98 57 175 102 509 301 637 376 655 385 20 10 20 13 14
755 -3 410 -7 922 -8 1139 l-3 393 -54 33 c-30 17 -117 67 -194 110 -77 43
-143 84 -147 89 -10 15 -22 76 -15 82 3 3 72 -33 153 -79 82 -46 169 -95 194
-109 89 -50 125 -72 131 -81 4 -6 8 -114 8 -241 2 -247 9 -1001 15 -1696 l4
-425 -396 -233 c-219 -128 -473 -278 -567 -334 -93 -55 -190 -112 -215 -126
-25 -13 -49 -28 -55 -32 -5 -5 -37 -24 -70 -43 -33 -18 -199 -116 -370 -217
-170 -100 -324 -189 -341 -197 -30 -15 -32 -14 -250 110 -120 68 -241 137
-269 152 -27 15 -54 31 -60 35 -5 4 -31 19 -57 34 -27 14 -68 37 -93 51 -25
14 -64 36 -87 49 -24 13 -119 67 -212 120 -92 53 -170 96 -172 96 -2 0 -33 18
-69 40 -36 22 -67 40 -69 40 -3 0 -44 23 -93 51 -48 29 -106 61 -128 73 -163
90 -511 291 -517 300 -4 6 -8 112 -8 236 -1 241 -8 1098 -14 1735 l-4 390 227
133 c124 73 280 166 346 206 66 41 121 74 123 75 1 0 -15 -23 -36 -51z m3078
-281 c52 -30 124 -71 160 -90 l64 -35 2 -159 c1 -87 5 -495 9 -908 3 -412 7
-837 9 -943 1 -106 -1 -197 -4 -201 -3 -4 -57 -38 -120 -75 -63 -37 -122 -71
-130 -76 -8 -6 -116 -69 -240 -141 -124 -72 -277 -162 -340 -199 -63 -37 -297
-175 -520 -305 -223 -131 -438 -257 -478 -282 l-74 -44 -259 148 -260 147 73
16 c221 49 449 206 723 501 33 35 81 89 107 119 26 30 59 69 73 85 14 17 71
90 126 163 144 191 291 413 389 590 9 15 31 54 50 87 70 120 235 463 307 639
78 189 174 508 197 651 22 138 24 160 25 278 1 54 4 96 9 94 4 -2 50 -29 102
-60z"/>
</g>
</svg>
